<svg width="395" height="260" viewBox="0 0 395 260" fill="none" xmlns="http://www.w3.org/2000/svg">
<path d="M299.562 146.172C318.143 129.395 345.779 120.96 368.961 130.367C345.181 143.596 326.838 164.826 317.176 190.302C313.486 200.14 310.403 211.468 301.326 216.735C295.678 220.013 288.651 220.173 282.319 218.591C275.985 217.008 270.181 213.837 264.455 210.697L262.826 210.66C270.139 186.694 280.982 162.948 299.562 146.172Z" fill="#E6E6E6"/>
<path d="M368.83 130.877C348.299 133.535 329.126 142.608 314.034 156.807C310.731 159.806 307.92 163.308 305.705 167.184C303.669 171.029 302.698 175.351 302.893 179.699C302.994 183.758 303.565 187.897 302.679 191.909C302.195 193.956 301.285 195.878 300.008 197.547C298.731 199.217 297.116 200.598 295.27 201.598C290.733 204.211 285.53 205.035 280.413 205.663C274.733 206.361 268.821 206.995 263.904 210.188C263.308 210.575 262.744 209.626 263.339 209.24C271.894 203.685 282.72 205.706 291.919 201.999C296.211 200.269 300.01 197.233 301.354 192.642C302.53 188.627 301.944 184.358 301.807 180.25C301.555 176.01 302.342 171.773 304.101 167.909C306.112 163.933 308.783 160.329 312.001 157.25C319.135 150.204 327.33 144.326 336.286 139.83C346.479 134.643 357.482 131.241 368.82 129.772C369.522 129.681 369.528 130.786 368.83 130.877H368.83Z" fill="white"/>
<path d="M318.626 151.948C316.592 149.088 315.639 145.596 315.937 142.097C316.236 138.597 317.766 135.318 320.255 132.845C320.76 132.346 321.557 133.109 321.051 133.609C318.73 135.907 317.304 138.962 317.033 142.221C316.762 145.481 317.662 148.73 319.572 151.382C319.986 151.959 319.038 152.522 318.626 151.948V151.948Z" fill="white"/>
<path d="M302.573 177.649C309.628 178.901 316.896 177.443 322.926 173.565C323.523 173.18 324.087 174.129 323.491 174.514C317.208 178.537 309.642 180.039 302.303 178.72C301.604 178.593 301.877 177.523 302.573 177.649V177.649Z" fill="white"/>
<path d="M346.569 136.105C347.125 137.376 347.989 138.489 349.08 139.343C350.172 140.197 351.459 140.767 352.825 140.999C353.525 141.117 353.251 142.187 352.555 142.07C351.047 141.806 349.627 141.176 348.419 140.235C347.21 139.293 346.25 138.07 345.622 136.671C345.552 136.544 345.533 136.396 345.568 136.255C345.604 136.114 345.691 135.992 345.813 135.914C345.939 135.84 346.088 135.818 346.23 135.854C346.371 135.89 346.493 135.98 346.569 136.105V136.105Z" fill="white"/>
<path d="M394.487 211.272C394.048 211.211 393.608 211.15 393.162 211.096C387.248 210.309 381.279 210.006 375.316 210.188C374.854 210.194 374.387 210.208 373.927 210.228C359.564 210.82 345.436 214.078 332.26 219.838C327.019 222.135 321.961 224.828 317.127 227.894C310.453 232.128 303.553 237.251 296.092 238.978C295.315 239.167 294.528 239.308 293.734 239.399L262.907 212.654C262.867 212.558 262.821 212.468 262.781 212.372L261.502 211.361C261.74 211.185 261.991 211.008 262.229 210.833C262.367 210.73 262.512 210.634 262.649 210.531C262.743 210.465 262.838 210.399 262.919 210.333C262.95 210.311 262.982 210.289 263.007 210.274C263.088 210.209 263.17 210.157 263.245 210.099C264.645 209.106 266.053 208.121 267.472 207.144C267.478 207.137 267.478 207.137 267.491 207.136C278.227 199.59 289.819 193.346 302.023 188.536C302.389 188.398 302.761 188.252 303.141 188.125C308.637 186.078 314.291 184.484 320.046 183.359C323.2 182.753 326.382 182.308 329.58 182.025C337.846 181.309 346.172 181.9 354.254 183.776C370.365 187.52 385.102 196.384 393.831 210.209C394.054 210.563 394.27 210.911 394.487 211.272Z" fill="#E6E6E6"/>
<path d="M394.08 211.603C376.089 201.34 355.329 197.018 334.747 199.25C330.307 199.652 325.959 200.752 321.862 202.511C317.926 204.353 314.554 207.218 312.096 210.808C309.738 214.108 307.707 217.759 304.589 220.428C302.973 221.77 301.091 222.755 299.068 223.318C297.046 223.881 294.927 224.009 292.851 223.693C287.659 223.043 283.009 220.561 278.547 217.977C273.592 215.107 268.491 212.047 262.646 211.63C261.938 211.579 262.058 210.481 262.765 210.532C272.933 211.258 280.362 219.402 289.935 221.992C294.402 223.2 299.259 223.067 303.091 220.213C306.442 217.717 308.539 213.954 310.898 210.592C313.244 207.054 316.419 204.147 320.145 202.123C324.14 200.161 328.439 198.894 332.857 198.378C342.787 197.055 352.862 197.305 362.714 199.119C373.97 201.127 384.8 205.049 394.735 210.715C395.35 211.066 394.69 211.952 394.08 211.603L394.08 211.603Z" fill="white"/>
<path d="M341.332 198.14C341.427 194.63 342.765 191.267 345.106 188.653C347.447 186.039 350.639 184.343 354.112 183.87C354.815 183.777 354.993 184.867 354.289 184.96C351.054 185.395 348.08 186.975 345.906 189.413C343.731 191.852 342.497 194.99 342.428 198.259C342.412 198.97 341.316 198.847 341.332 198.14Z" fill="white"/>
<path d="M313.072 208.976C317.953 214.233 324.632 217.453 331.777 217.994C332.485 218.047 332.365 219.145 331.658 219.092C324.224 218.515 317.281 215.15 312.214 209.669C311.731 209.146 312.592 208.456 313.072 208.976Z" fill="white"/>
<path d="M373.163 202.348C372.844 203.699 372.864 205.108 373.223 206.449C373.581 207.789 374.267 209.02 375.217 210.03C375.706 210.546 374.844 211.235 374.358 210.722C373.313 209.602 372.558 208.242 372.159 206.761C371.759 205.281 371.728 203.725 372.067 202.229C372.087 202.085 372.161 201.955 372.274 201.864C372.387 201.773 372.53 201.728 372.674 201.739C372.819 201.756 372.952 201.829 373.043 201.943C373.135 202.057 373.178 202.202 373.163 202.348V202.348Z" fill="white"/>
<path d="M51.1709 242.136C49.7238 247.576 45.9214 252.106 41.3305 255.406C40.582 255.946 39.8136 256.446 39.0351 256.916C38.7956 257.056 38.5561 257.206 38.3066 257.336C38.0371 257.496 37.7677 257.646 37.4982 257.786H15.9114C15.5222 256.996 15.1429 256.196 14.7637 255.406C5.51219 235.926 -0.984814 214.906 0.12297 193.496C0.562468 185.191 2.30366 177.008 5.28265 169.246C11.2108 153.776 22.0292 140.386 36.9094 133.646C37.2787 133.476 37.6679 133.306 38.0471 133.146C37.9274 133.576 37.8076 133.996 37.6878 134.426C36.0914 140.189 34.9633 146.071 34.3146 152.016C34.2547 152.476 34.2048 152.936 34.1649 153.406C32.7471 167.744 34.006 182.22 37.8775 196.096C37.8874 196.126 37.8974 196.166 37.9074 196.196C38.7557 199.266 39.7404 202.289 40.8615 205.266C41.7397 207.616 42.6878 209.936 43.7258 212.216C48.0571 221.786 53.8654 231.986 51.1709 242.136Z" fill="#E6E6E6"/>
<path d="M38.3169 133.596C38.1073 133.876 37.8977 134.146 37.6882 134.426C33.3047 140.247 29.5825 146.539 26.5904 153.186C26.4307 153.516 26.281 153.846 26.1512 154.186C22.0514 163.468 19.4184 173.332 18.3468 183.426C18.3352 183.495 18.3286 183.565 18.3269 183.636C18.0774 185.996 17.9277 188.376 17.8678 190.756C17.6459 195.217 18.1275 199.685 19.2949 203.996C20.3594 207.516 22.2247 210.741 24.744 213.416C24.9935 213.686 25.2431 213.956 25.5125 214.216C25.7121 214.426 25.9317 214.636 26.1412 214.836C28.1572 216.766 30.3628 218.556 32.259 220.626C33.1281 221.554 33.913 222.558 34.6043 223.626C35.7076 225.415 36.4203 227.419 36.6956 229.504C36.9708 231.59 36.8023 233.71 36.2011 235.726C34.8438 240.786 31.7401 245.056 28.5664 249.126C26.9796 251.166 25.3428 253.226 23.9257 255.406C23.4068 256.186 22.9277 256.976 22.4886 257.786H21.2311C21.6503 256.976 22.1094 256.186 22.6084 255.406C26.2511 249.656 31.4307 244.716 34.1154 238.386C35.9317 234.116 36.4806 229.276 34.1852 225.086C33.5125 223.867 32.6985 222.733 31.7601 221.706C29.9337 219.636 27.7481 217.866 25.7621 215.996C25.2631 215.526 24.774 215.046 24.305 214.546C21.8182 212.014 19.8992 208.98 18.6762 205.646C17.2913 201.411 16.6365 196.971 16.7401 192.516C16.7401 189.676 16.8898 186.816 17.1693 183.976C17.1992 183.616 17.2391 183.246 17.279 182.876C19.32 165.004 26.0982 148.006 36.9098 133.646C37.1094 133.366 37.319 133.096 37.5285 132.826C37.9576 132.266 38.746 133.046 38.3169 133.596Z" fill="white"/>
<path d="M17.6812 184.07C14.2245 183.489 11.0866 181.695 8.82807 179.009C6.56954 176.323 5.3374 172.92 5.35169 169.408C5.3536 169.264 5.41091 169.128 5.51155 169.026C5.6122 168.924 5.74832 168.866 5.89123 168.862C6.03413 168.859 6.17267 168.912 6.27766 169.009C6.38264 169.106 6.44588 169.241 6.45403 169.384C6.43471 172.654 7.58276 175.824 9.691 178.321C11.7992 180.817 14.7288 182.477 17.9509 183C18.651 183.114 18.3773 184.184 17.6812 184.071V184.07Z" fill="white"/>
<path d="M24.4669 213.617C30.3398 209.504 34.4497 203.324 35.977 196.309C36.1278 195.614 37.1964 195.885 37.0459 196.579C35.4429 203.876 31.1529 210.299 25.032 214.565C24.4483 214.972 23.8864 214.021 24.4669 213.617L24.4669 213.617Z" fill="white"/>
<path d="M26.2596 153.069C27.5502 153.573 28.9457 153.748 30.3207 153.579C31.6957 153.409 33.0072 152.9 34.1372 152.097C34.7155 151.684 35.2768 152.635 34.7023 153.045C33.4497 153.927 32.0006 154.487 30.4819 154.678C28.9631 154.869 27.4209 154.684 25.9899 154.14C25.8507 154.1 25.7319 154.008 25.6577 153.884C25.5835 153.759 25.5594 153.611 25.5903 153.469C25.6267 153.327 25.7174 153.206 25.8428 153.131C25.9681 153.056 26.1179 153.034 26.2596 153.069V153.069Z" fill="white"/>
<path d="M113.187 172.266C112.837 172.536 112.478 172.806 112.129 173.086C107.391 176.719 102.955 180.733 98.8653 185.086C98.5459 185.416 98.2266 185.756 97.9172 186.096L97.9072 186.106C88.2106 196.653 80.5435 208.906 75.2924 222.246L75.2625 222.336C75.2525 222.366 75.2426 222.386 75.2326 222.416C73.1512 227.756 71.4732 233.244 70.2126 238.836C68.995 244.296 67.997 250.146 66.0909 255.406C65.8014 256.216 65.4821 257.016 65.1427 257.786H20.7715C20.9212 256.996 21.0809 256.196 21.2405 255.406C23.4977 243.819 27.0254 232.517 31.7595 221.706C31.9192 221.346 32.0789 220.986 32.2585 220.626C34.7024 215.284 37.5762 210.151 40.8513 205.276C40.8513 205.275 40.8515 205.273 40.852 205.272C40.8525 205.271 40.8533 205.27 40.8542 205.269C40.8551 205.268 40.8562 205.267 40.8575 205.267C40.8587 205.266 40.86 205.266 40.8613 205.266C42.6597 202.606 44.5917 200.04 46.6497 197.576C51.9872 191.213 58.2921 185.732 65.3324 181.336C65.3723 181.306 65.4222 181.286 65.4621 181.256C79.4741 172.546 96.0809 168.396 111.959 171.986H111.969C112.378 172.076 112.778 172.166 113.187 172.266Z" fill="#E6E6E6"/>
<path d="M113.137 172.796C112.797 172.886 112.458 172.986 112.129 173.086C105.134 175.088 98.3832 177.862 91.999 181.356C91.6796 181.526 91.3602 181.706 91.0409 181.886C82.2181 186.82 74.2094 193.091 67.2984 200.476C67.2929 200.481 67.2894 200.488 67.2884 200.496C67.2085 200.576 67.1187 200.666 67.0489 200.746C65.4521 202.466 63.9151 204.256 62.458 206.096C59.6078 209.527 57.3113 213.383 55.6517 217.526C54.3835 220.978 53.9359 224.68 54.3443 228.336C54.3742 228.706 54.4241 229.066 54.474 229.436C54.5139 229.726 54.5538 230.016 54.6037 230.316C55.2624 234.326 56.4001 238.346 56.0808 242.436C55.8865 244.532 55.2515 246.562 54.2178 248.394C53.184 250.226 51.7747 251.819 50.0828 253.066C48.9326 253.957 47.7033 254.74 46.4101 255.406C44.5613 256.361 42.6349 257.157 40.6517 257.786H36.7295C37.2584 257.636 37.7774 257.486 38.3063 257.336C40.1833 256.805 42.0264 256.161 43.8253 255.406C44.853 254.975 45.8529 254.481 46.8193 253.926C50.8313 251.616 54.1747 248.076 54.8732 243.346C55.482 239.206 54.3043 235.066 53.6057 231.016C53.486 230.316 53.3762 229.626 53.3163 228.936C52.8398 225.429 53.1292 221.86 54.1646 218.476C55.6006 214.255 57.7474 210.311 60.5119 206.816C62.2221 204.54 64.0475 202.354 65.981 200.266C66.2205 199.996 66.47 199.726 66.7295 199.456C73.7859 192.018 81.9335 185.702 90.8912 180.726H90.9012C97.5616 177.011 104.628 174.078 111.959 171.986H111.969C112.298 171.886 112.638 171.786 112.967 171.696C113.656 171.516 113.815 172.606 113.137 172.796Z" fill="white"/>
<path d="M66.335 200.645C63.9246 198.095 62.4972 194.77 62.3077 191.263C62.1183 187.756 63.1792 184.295 65.301 181.5C65.7322 180.935 66.6275 181.58 66.1957 182.145C64.2151 184.745 63.2272 187.969 63.4102 191.234C63.5933 194.499 64.9352 197.592 67.1939 199.953C67.6841 200.466 66.8224 201.156 66.335 200.645H66.335Z" fill="white"/>
<path d="M53.9986 228.33C61.1593 228.588 68.1543 226.133 73.5887 221.454C74.1267 220.99 74.8171 221.851 74.2797 222.315C68.6155 227.173 61.331 229.714 53.88 229.428C53.1698 229.4 53.2923 228.302 53.9986 228.33V228.33Z" fill="white"/>
<path d="M91.8123 181.067C92.5398 182.249 93.5488 183.23 94.7486 183.924C95.9483 184.619 97.3013 185.003 98.6861 185.044C99.3963 185.063 99.273 186.161 98.5675 186.142C97.0377 186.09 95.544 185.663 94.2167 184.899C92.8895 184.135 91.7691 183.058 90.9535 181.76C90.8664 181.644 90.8266 181.499 90.8422 181.355C90.8578 181.211 90.9276 181.078 91.0374 180.983C91.1516 180.892 91.297 180.85 91.4421 180.866C91.5872 180.881 91.7203 180.954 91.8123 181.067V181.067Z" fill="white"/>
<path d="M395 258.5C395 258.697 394.986 258.892 394.959 259.075C394.932 259.257 394.892 259.423 394.841 259.562C394.79 259.701 394.73 259.812 394.664 259.887C394.598 259.962 394.527 260.001 394.455 260H0.544872C0.400362 260 0.261775 259.842 0.15959 259.561C0.0574059 259.279 0 258.898 0 258.5C0 258.102 0.0574059 257.721 0.15959 257.439C0.261775 257.158 0.400362 257 0.544872 257H394.455C394.527 256.999 394.598 257.038 394.664 257.113C394.73 257.188 394.79 257.299 394.841 257.438C394.892 257.577 394.932 257.743 394.959 257.925C394.986 258.108 395 258.303 395 258.5Z" fill="#CCCCCC"/>
<path d="M306.215 156.305C306.471 154.639 306.129 152.936 305.251 151.498C304.372 150.061 303.015 148.981 301.418 148.451L203.201 115.674C202.259 115.358 201.262 115.244 200.274 115.337L175.656 117.67L161.531 119.012L135.464 121.481C133.89 121.632 132.411 122.302 131.258 123.386C130.105 124.47 129.344 125.906 129.093 127.471L115.858 210.308C115.608 211.924 115.915 213.577 116.729 214.994C117.542 216.412 118.814 217.509 120.334 218.104L219.576 256.488C220.042 256.67 220.525 256.8 221.019 256.877C221.738 256.994 222.47 256.999 223.191 256.893L287.318 247.37C288.83 247.15 290.232 246.448 291.315 245.368C292.398 244.287 293.104 242.885 293.329 241.371L306.215 156.305Z" fill="white"/>
<path d="M122.583 212.267L221.825 250.65C221.97 250.707 222.127 250.725 222.281 250.703L286.4 241.181C286.59 241.155 286.766 241.067 286.902 240.932C287.038 240.796 287.126 240.62 287.153 240.429L300.047 155.363C300.077 155.155 300.033 154.943 299.924 154.764C299.815 154.585 299.647 154.45 299.449 154.381L298.789 154.157L201.226 121.611C201.182 121.595 201.136 121.584 201.089 121.578C201.013 121.564 200.936 121.56 200.86 121.566L140.815 127.259L136.051 127.707C135.855 127.728 135.672 127.813 135.529 127.948C135.385 128.083 135.29 128.261 135.257 128.455L122.025 211.29C121.993 211.492 122.03 211.699 122.132 211.877C122.234 212.055 122.393 212.193 122.583 212.267V212.267Z" fill="#5ECE7B"/>
<path d="M140.816 127.259L200.861 121.566C200.937 121.56 201.014 121.564 201.09 121.578C201.137 121.584 201.183 121.595 201.227 121.611L298.79 154.157L273.055 156.887L263.423 157.904L236.018 160.805C235.938 160.809 235.857 160.808 235.777 160.802C235.729 160.787 235.68 160.772 235.621 160.757L140.816 127.259Z" fill="#2F2E41"/>
<path d="M120.333 218.109L219.574 256.492C220.041 256.672 220.527 256.799 221.022 256.871C221.741 256.99 222.473 257 223.195 256.899L287.314 247.376C288.827 247.156 290.229 246.452 291.312 245.371C292.396 244.29 293.103 242.888 293.33 241.372L306.214 156.305C306.404 155.051 306.26 153.768 305.796 152.588C305.731 152.431 305.666 152.274 305.59 152.126C305.079 151.049 304.301 150.12 303.331 149.429C302.746 149.008 302.102 148.679 301.419 148.452L301.302 148.411L203.207 115.673C202.806 115.545 202.397 115.446 201.982 115.375C201.415 115.295 200.84 115.284 200.271 115.342L175.657 117.667L161.533 119.017L135.462 121.483C134.395 121.583 133.365 121.924 132.449 122.481C132.378 122.515 132.311 122.555 132.247 122.602C132.202 122.631 132.159 122.664 132.118 122.7C131.318 123.247 130.637 123.951 130.118 124.77C129.599 125.589 129.251 126.506 129.097 127.464L115.853 210.307C115.603 211.924 115.911 213.578 116.725 214.997C117.539 216.415 118.812 217.513 120.333 218.109V218.109ZM130.854 127.752C131.015 126.759 131.454 125.833 132.121 125.081C132.323 124.839 132.549 124.618 132.795 124.422C133.469 123.877 134.265 123.505 135.114 123.338C135.282 123.304 135.452 123.28 135.623 123.267L179.519 119.111L200.442 117.116C200.584 117.1 200.714 117.102 200.845 117.095C201.162 117.088 201.479 117.112 201.791 117.165C202.078 117.202 202.361 117.27 202.634 117.366L300.846 150.145C300.924 150.173 300.991 150.199 301.069 150.227C301.962 150.56 302.746 151.132 303.337 151.88C303.804 152.454 304.145 153.119 304.338 153.834C304.531 154.548 304.571 155.295 304.456 156.026L291.561 241.103C291.392 242.237 290.863 243.287 290.053 244.098C289.243 244.908 288.194 245.436 287.061 245.604L222.933 255.125C222.015 255.257 221.08 255.15 220.215 254.815L120.973 216.443C119.835 215.994 118.884 215.17 118.275 214.108C117.666 213.046 117.435 211.808 117.62 210.597L130.854 127.752Z" fill="#3F3D56"/>
<path d="M131.904 123.151C131.957 123.001 132.049 122.867 132.172 122.765C132.212 122.733 132.255 122.703 132.3 122.677C132.342 122.661 132.385 122.635 132.426 122.619C132.626 122.538 132.847 122.535 133.049 122.608L135.115 123.338L236.029 159.008L259.646 156.507L272.863 155.111L300.836 152.143L303.338 151.88L303.824 151.826C304.034 151.807 304.243 151.862 304.417 151.981C304.59 152.101 304.717 152.277 304.774 152.48C304.788 152.527 304.797 152.575 304.801 152.623C304.821 152.816 304.779 153.01 304.68 153.176C304.581 153.342 304.431 153.472 304.252 153.545C304.173 153.578 304.09 153.6 304.005 153.612L300.602 153.969L273.054 156.887L263.423 157.904L236.018 160.805C235.938 160.809 235.857 160.808 235.777 160.802C235.729 160.787 235.68 160.772 235.621 160.757L132.796 124.422L132.447 124.298C132.367 124.272 132.292 124.231 132.228 124.177C132.072 124.063 131.957 123.901 131.899 123.717C131.841 123.533 131.842 123.335 131.904 123.151Z" fill="#3F3D56"/>
<path d="M221.292 257.132C221.06 257.095 220.852 256.967 220.713 256.777C220.574 256.587 220.516 256.349 220.551 256.116L235.039 159.782C235.074 159.548 235.201 159.337 235.391 159.196C235.582 159.055 235.82 158.996 236.054 159.031L236.062 159.033C236.294 159.07 236.502 159.198 236.641 159.388C236.78 159.578 236.838 159.815 236.803 160.048L222.315 256.383C222.28 256.617 222.153 256.828 221.963 256.968C221.772 257.109 221.534 257.168 221.3 257.133L221.292 257.132Z" fill="#3F3D56"/>
<path d="M258.015 251.021L248.38 252.039L259.651 156.505C259.651 156.505 272.519 154.17 272.864 155.106C273.076 155.665 258.107 250.408 258.015 251.021Z" fill="#3F3D56"/>
<path d="M132.449 124.297L132.189 167.864L209.162 197.252L236.803 160.048L132.449 124.297Z" fill="#3F3D56"/>
<path d="M303.34 151.882C302.697 151.072 301.83 150.468 300.848 150.145L202.639 117.368C202.363 117.275 202.08 117.205 201.792 117.161C201.479 117.107 201.162 117.083 200.844 117.09L201.003 116.092L201.986 115.379L225.308 98.4604L303.193 122.377L303.328 149.429L303.34 151.882Z" fill="#3F3D56"/>
<path d="M136.372 194.237C136.482 194.247 136.591 194.27 136.697 194.305L166.83 204.222C167.208 204.346 167.52 204.615 167.699 204.97C167.879 205.325 167.91 205.737 167.786 206.115C167.662 206.493 167.394 206.806 167.039 206.986C166.685 207.165 166.274 207.197 165.897 207.073L135.763 197.156C135.413 197.041 135.118 196.8 134.934 196.481C134.75 196.161 134.69 195.785 134.765 195.424C134.84 195.063 135.046 194.742 135.342 194.523C135.638 194.304 136.005 194.202 136.372 194.237H136.372Z" fill="white"/>
<path d="M150.702 94.2358C157.316 94.2358 162.678 88.8633 162.678 82.2358C162.678 75.6084 157.316 70.2358 150.702 70.2358C144.087 70.2358 138.726 75.6084 138.726 82.2358C138.726 88.8633 144.087 94.2358 150.702 94.2358Z" fill="#F2F2F2"/>
<path d="M202.063 24C208.677 24 214.039 18.6274 214.039 12C214.039 5.37258 208.677 0 202.063 0C195.449 0 190.087 5.37258 190.087 12C190.087 18.6274 195.449 24 202.063 24Z" fill="#F2F2F2"/>
</svg>
